2.2Hzlow3min_grf.mot
version=1
nRows=30
nColumns 19
inDegrees=yes
endheader
time	1_ground_force_vx	1_ground_force_vy	1_ground_force_vz	1_ground_force_px	1_ground_force_py	1_ground_force_pz	1_ground_torque_x	1_ground_torque_y	1_ground_torque_z	2_ground_force_vx	2_ground_force_vy	2_ground_force_vz	2_ground_force_px	2_ground_force_py	2_ground_force_pz	2_ground_torque_x	2_ground_torque_y	2_ground_torque_z
            3.751500	           16.289955	          371.263611	          -20.230761	           -0.254712	            0.006220	           -0.405432	            0.019176	            0.437036	           -0.023815	           41.809077	          423.506250	            3.510056	           -0.288020	            0.005279	           -0.651367	           -0.001455	           -0.014736	           -0.000122
            3.752000	           16.383961	          366.033534	          -19.703133	           -0.254491	            0.006218	           -0.404951	            0.019505	            0.435765	           -0.023457	           41.363130	          417.243866	            3.394059	           -0.287818	            0.005279	           -0.651245	           -0.002326	           -0.023463	           -0.000191
            3.752500	           16.202895	          360.262835	          -19.222998	           -0.254428	            0.006219	           -0.405308	            0.021412	            0.476076	           -0.025403	           40.680926	          411.533225	            3.233205	           -0.288086	            0.005280	           -0.651720	            0.000909	            0.009200	            0.000072
            3.753000	           16.066793	          355.574918	          -19.013474	           -0.254232	            0.006217	           -0.404824	            0.024838	            0.549699	           -0.029394	           40.238953	          404.166102	            3.066338	           -0.288218	            0.005276	           -0.650826	           -0.001078	           -0.010824	           -0.000082
            3.753500	           15.886050	          349.263058	          -18.443946	           -0.254093	            0.006218	           -0.404984	            0.025281	            0.555814	           -0.029352	           39.740173	          399.560876	            2.956274	           -0.287779	            0.005282	           -0.651946	            0.005952	            0.059844	            0.000443
            3.754000	           16.024711	          344.936119	          -18.325270	           -0.254182	            0.006215	           -0.404462	            0.022473	            0.483745	           -0.025700	           39.247464	          393.297653	            3.028010	           -0.287945	            0.005280	           -0.651608	            0.015287	            0.153189	            0.001179
            3.754500	           15.888640	          340.067905	          -18.116519	           -0.253785	            0.006216	           -0.404481	            0.020637	            0.441705	           -0.023531	           39.086670	          385.930876	            3.048735	           -0.287786	            0.005278	           -0.650987	            0.003739	            0.036915	            0.000292
            3.755000	           15.844745	          333.757252	          -17.822468	           -0.254019	            0.006218	           -0.404968	            0.017843	            0.375848	           -0.020070	           38.448015	          381.141001	            2.938074	           -0.287594	            0.005280	           -0.651283	            0.011836	            0.117331	            0.000904
            3.755500	           15.708950	          329.248981	          -17.474603	           -0.253574	            0.006215	           -0.404349	            0.018368	            0.384972	           -0.020432	           38.185644	          375.982798	            3.201365	           -0.287600	            0.005282	           -0.651760	            0.001128	            0.011104	            0.000095
            3.756000	           15.665478	          323.117776	          -16.996355	           -0.253597	            0.006216	           -0.404660	            0.023476	            0.484211	           -0.025470	           37.552285	          369.719904	            3.038519	           -0.287519	            0.005281	           -0.651616	            0.004844	            0.047689	            0.000392
            3.756500	           15.529586	          317.888896	          -16.743294	           -0.253577	            0.006217	           -0.404885	            0.027952	            0.572173	           -0.030137	           37.244125	          364.195427	            2.690450	           -0.287529	            0.005281	           -0.651648	            0.002327	            0.022753	            0.000168
            3.757000	           15.347199	          313.742326	          -16.668906	           -0.253220	            0.006214	           -0.403994	            0.024211	            0.494939	           -0.026296	           36.515129	          358.484114	            2.670400	           -0.287412	            0.005283	           -0.651969	            0.012656	            0.124253	            0.000926
            3.757500	           15.212041	          307.611104	          -16.190430	           -0.253404	            0.006216	           -0.404461	            0.021194	            0.428570	           -0.022557	           36.019762	          352.957515	            2.744764	           -0.287261	            0.005284	           -0.652092	            0.017376	            0.170270	            0.001324
            3.758000	           15.030112	          302.202312	          -16.029740	           -0.252994	            0.006218	           -0.404887	            0.017437	            0.350587	           -0.018596	           35.711774	          347.431699	            2.772120	           -0.287105	            0.005284	           -0.651907	            0.017821	            0.173376	            0.001383
            3.758500	           14.940144	          297.153479	          -15.730164	           -0.253213	            0.006217	           -0.404670	            0.017572	            0.349509	           -0.018502	           35.453350	          341.168986	            2.937612	           -0.287172	            0.005283	           -0.651738	            0.008824	            0.084912	            0.000731
            3.759000	           14.942482	          291.202580	          -15.251257	           -0.253032	            0.006219	           -0.405262	            0.019622	            0.382398	           -0.020027	           35.240230	          335.276566	            2.588189	           -0.287350	            0.005281	           -0.651456	            0.008233	            0.078326	            0.000605
            3.759500	           14.852413	          287.956011	          -14.852239	           -0.252599	            0.006216	           -0.404600	            0.023449	            0.454633	           -0.023449	           34.556771	          329.933537	            2.616361	           -0.287100	            0.005284	           -0.651926	            0.007301	            0.069704	            0.000553
            3.760000	           14.670580	          283.267888	          -14.596746	           -0.252669	            0.006214	           -0.404109	            0.025844	            0.499001	           -0.025713	           33.731442	          324.958343	            2.645907	           -0.286954	            0.005285	           -0.651956	            0.014179	            0.136599	            0.001112
            3.760500	           14.580304	          278.039349	          -14.435511	           -0.252582	            0.006216	           -0.404597	            0.023629	            0.450598	           -0.023395	           33.606865	          320.538108	            2.677126	           -0.286651	            0.005288	           -0.652494	            0.015765	            0.150368	            0.001256
            3.761000	           14.306997	          272.810245	          -14.136252	           -0.252730	            0.006215	           -0.404330	            0.020097	            0.383221	           -0.019857	           33.068552	          313.907043	            2.559854	           -0.286959	            0.005283	           -0.651646	            0.020023	            0.190075	            0.001550
            3.761500	           14.629308	          267.581786	          -13.976041	           -0.252498	            0.006217	           -0.404694	            0.019940	            0.364728	           -0.019050	           32.619385	          308.564525	            2.681783	           -0.287175	            0.005285	           -0.652383	            0.022892	            0.216545	            0.001882
            3.762000	           14.263920	          264.515853	          -13.667280	           -0.252565	            0.006214	           -0.403965	            0.019358	            0.358974	           -0.018548	           32.170122	          303.222905	            2.569072	           -0.286400	            0.005286	           -0.651763	            0.013413	            0.126426	            0.001071
            3.762500	           13.851913	          259.468924	          -13.825466	           -0.252410	            0.006215	           -0.404341	            0.022595	            0.423247	           -0.022552	           31.672816	          298.248164	            2.786191	           -0.286544	            0.005287	           -0.652334	            0.009932	            0.093525	            0.000874
            3.763000	           13.761880	          254.780592	          -13.524345	           -0.252031	            0.006215	           -0.404376	            0.024515	            0.453853	           -0.024092	           31.272584	          292.352724	            3.093841	           -0.286865	            0.005285	           -0.651903	            0.006624	            0.061927	            0.000655
            3.763500	           13.626426	          250.271761	          -13.038912	           -0.252382	            0.006214	           -0.404045	            0.026628	            0.489071	           -0.025480	           30.727038	          287.746658	            3.171510	           -0.286560	            0.005286	           -0.651996	            0.007268	            0.068065	            0.000750
            3.764000	           13.399106	          246.123640	          -12.597562	           -0.252001	            0.006214	           -0.404057	            0.021500	            0.394928	           -0.020214	           30.133195	          283.509710	            2.968944	           -0.286577	            0.005290	           -0.653012	            0.020427	            0.192187	            0.002013
            3.764500	           13.171023	          241.796630	          -12.477977	           -0.251767	            0.006212	           -0.403534	            0.017452	            0.320386	           -0.016534	           29.450589	          277.981095	            3.418812	           -0.286574	            0.005288	           -0.652519	            0.023511	            0.221913	            0.002729
            3.765000	           13.081349	          236.386873	          -12.088235	           -0.251573	            0.006214	           -0.404082	            0.016814	            0.303833	           -0.015537	           28.951796	          273.376036	            3.261821	           -0.286592	            0.005289	           -0.652713	            0.019789	            0.186859	            0.002230
            3.765500	           12.990225	          232.060872	          -12.198270	           -0.251518	            0.006214	           -0.403962	            0.017760	            0.317274	           -0.016677	           28.689950	          268.034864	            3.195957	           -0.286127	            0.005288	           -0.652121	            0.019904	            0.185953	            0.002217
            3.766000	           12.945786	          229.355305	          -11.842904	           -0.251236	            0.006211	           -0.403346	            0.020667	            0.366146	           -0.018906	           28.188639	          264.165196	            3.370090	           -0.285988	            0.005291	           -0.652826	            0.014833	            0.139008	            0.001773
